<?xml version="1.0" encoding="UTF-8" standalone="no"?>
<!DOCTYPE svg PUBLIC "-//W3C//DTD SVG 1.1//EN"
 "http://www.w3.org/Graphics/SVG/1.1/DTD/svg11.dtd">
<svg width="469pt" height="144pt"
 viewBox="0.00 0.00 469.46 144.00" xmlns="http://www.w3.org/2000/svg" xmlns:xlink="http://www.w3.org/1999/xlink">
<g id="graph0" class="graph" transform="scale(1 1) rotate(0) translate(4 140)">
<title>VIPER_visualization_root</title>
<polygon fill="#ffffff" points="-4,4 -4,-140 465.4591,-140 465.4591,4 -4,4"/>
<g id="node1" class="node">
<title>root</title>
<ellipse fill="none" stroke="#000000" cx="230.7295" cy="-118" rx="230.9593" ry="18"/>
<text text-anchor="middle" x="230.7295" y="-114.3" font-family="Fira Mono" font-size="14.00" fill="#000000">cons(1, cons(2, nil)) = cons(First, Rest)</text>
</g>
<g id="node2" class="node">
<title>root_success</title>
<polygon fill="none" stroke="#00ff00" points="53.2295,-.5 53.2295,-63.5 408.2295,-63.5 408.2295,-.5 53.2295,-.5"/>
<text text-anchor="start" x="205.7295" y="-53.1" font-family="Fira Mono" font-size="8.00" fill="#000000">Unifikation</text>
<polyline fill="none" stroke="#00ff00" points="53.2295,-46.5 408.2295,-46.5 "/>
<text text-anchor="start" x="61.2295" y="-31.3" font-family="Fira Mono" font-size="14.00" fill="#000000">cons(1, cons(2, nil)) = cons(First, Rest)</text>
<polyline fill="none" stroke="#00ff00" points="53.2295,-23.5 408.2295,-23.5 "/>
<text text-anchor="start" x="106.7295" y="-8.3" font-family="Fira Mono" font-size="14.00" fill="#000000">First = 1, Rest = cons(2, nil)</text>
</g>
<g id="edge1" class="edge">
<title>root&#45;&gt;root_success</title>
<path fill="none" stroke="#00ff00" d="M230.7295,-99.7616C230.7295,-92.167 230.7295,-83.0091 230.7295,-73.9159"/>
<polygon fill="#00ff00" stroke="#00ff00" points="234.2296,-73.7636 230.7295,-63.7636 227.2296,-73.7637 234.2296,-73.7636"/>
</g>
</g>
</svg>
